<svg width="80" height="80" viewBox="0 0 80 80" fill="none" xmlns="http://www.w3.org/2000/svg">
<path d="M77.6471 31.25H53.3333V27.3438C53.3333 20.0087 59.3029 14.0625 66.6667 14.0625C74.0304 14.0625 80 20.0087 80 27.3438V28.9062C80 30.2006 78.9465 31.25 77.6471 31.25Z" fill="#407093"/>
<path d="M80 27.3438C80 20.0087 74.0305 14.0625 66.6667 14.0625V31.25H77.6471C78.9465 31.25 80 30.2006 80 28.9062V27.3438Z" fill="#365E7D"/>
<path d="M53.3333 31.25H26.6667V27.3438C26.6667 20.0087 32.6362 14.0625 40 14.0625C47.3638 14.0625 53.3333 20.0087 53.3333 27.3438V31.25Z" fill="#407093"/>
<path d="M53.3333 27.3438C53.3333 20.0087 47.3638 14.0625 40 14.0625V31.25H53.3333V27.3438Z" fill="#365E7D"/>
<path d="M26.6667 31.25H2.35294C1.05349 31.25 0 30.2006 0 28.9062V27.3438C0 20.0087 5.96957 14.0625 13.3333 14.0625C20.6971 14.0625 26.6667 20.0087 26.6667 27.3438V31.25Z" fill="#407093"/>
<path d="M26.6667 27.3438C26.6667 20.0087 20.6971 14.0625 13.3333 14.0625V31.25H26.6667V27.3438Z" fill="#365E7D"/>
<path d="M40 17.1875C35.2428 17.1875 31.3726 13.3323 31.3726 8.59375C31.3726 3.85516 35.2428 0 40 0C44.7572 0 48.6275 3.85516 48.6275 8.59375C48.6275 13.3323 44.7572 17.1875 40 17.1875Z" fill="#FFDDCE"/>
<path d="M40 0V17.1875C44.7572 17.1875 48.6275 13.3323 48.6275 8.59375C48.6275 3.85516 44.7572 0 40 0Z" fill="#FFCBBE"/>
<path d="M66.6667 17.1875C61.9095 17.1875 58.0392 13.3323 58.0392 8.59375C58.0392 3.85516 61.9095 0 66.6667 0C71.4238 0 75.2941 3.85516 75.2941 8.59375C75.2941 13.3323 71.4238 17.1875 66.6667 17.1875Z" fill="#FFDDCE"/>
<path d="M66.6667 0V17.1875C71.4238 17.1875 75.2941 13.3323 75.2941 8.59375C75.2941 3.85516 71.4238 0 66.6667 0Z" fill="#FFCBBE"/>
<path d="M13.3333 17.1875C8.57615 17.1875 4.70587 13.3323 4.70587 8.59375C4.70587 3.85516 8.57615 0 13.3333 0C18.0905 0 21.9608 3.85516 21.9608 8.59375C21.9608 13.3323 18.0905 17.1875 13.3333 17.1875Z" fill="#FFDDCE"/>
<path d="M13.3333 0V17.1875C18.0905 17.1875 21.9608 13.3323 21.9608 8.59375C21.9608 3.85516 18.0905 0 13.3333 0Z" fill="#FFCBBE"/>
<path d="M77.6471 46.875H2.35294C1.05349 46.875 0 45.8256 0 44.5312V28.9062H80V44.5312C80 45.8256 78.9465 46.875 77.6471 46.875Z" fill="#BC8173"/>
<path d="M80 44.5312V28.9062H40V46.875H77.6471C78.9465 46.875 80 45.8256 80 44.5312Z" fill="#9D5E4A"/>
<path d="M77.6471 70.25H53.3333V66.3438C53.3333 59.0087 59.3029 53.0625 66.6667 53.0625C74.0304 53.0625 80 59.0087 80 66.3438V67.9062C80 69.2006 78.9465 70.25 77.6471 70.25Z" fill="#407093"/>
<path d="M80 66.3438C80 59.0087 74.0305 53.0625 66.6667 53.0625V70.25H77.6471C78.9465 70.25 80 69.2006 80 67.9062V66.3438Z" fill="#365E7D"/>
<path d="M53.3333 70.25H26.6667V66.3438C26.6667 59.0087 32.6362 53.0625 40 53.0625C47.3638 53.0625 53.3333 59.0087 53.3333 66.3438V70.25Z" fill="#407093"/>
<path d="M53.3333 66.3438C53.3333 59.0087 47.3638 53.0625 40 53.0625V70.25H53.3333V66.3438Z" fill="#365E7D"/>
<path d="M26.6667 70.25H2.35294C1.05349 70.25 0 69.2006 0 67.9062V66.3438C0 59.0087 5.96957 53.0625 13.3333 53.0625C20.6971 53.0625 26.6667 59.0087 26.6667 66.3438V70.25Z" fill="#407093"/>
<path d="M26.6667 66.3438C26.6667 59.0087 20.6971 53.0625 13.3333 53.0625V70.25H26.6667V66.3438Z" fill="#365E7D"/>
<path d="M0 66.4062V77.6562C0 78.9506 1.05349 80 2.35294 80H77.6471C78.9465 80 80 78.9506 80 77.6562V66.4062H0Z" fill="#BC8173"/>
<path d="M77.6471 80C78.9465 80 80 78.9506 80 77.6562V66.4062H40V80H77.6471Z" fill="#9D5E4A"/>
<path d="M40.2941 56.1875C35.537 56.1875 31.6667 52.3323 31.6667 47.5938C31.6667 42.8552 35.537 39 40.2941 39C45.0513 39 48.9216 42.8552 48.9216 47.5938C48.9216 52.3323 45.0513 56.1875 40.2941 56.1875Z" fill="#FFDDCE"/>
<path d="M40.2941 39V56.1875C45.0513 56.1875 48.9216 52.3323 48.9216 47.5938C48.9216 42.8552 45.0513 39 40.2941 39Z" fill="#FFCBBE"/>
<path d="M66.9608 56.1875C62.2036 56.1875 58.3333 52.3323 58.3333 47.5938C58.3333 42.8552 62.2036 39 66.9608 39C71.718 39 75.5882 42.8552 75.5882 47.5938C75.5882 52.3323 71.718 56.1875 66.9608 56.1875Z" fill="#FFDDCE"/>
<path d="M66.9608 39V56.1875C71.718 56.1875 75.5882 52.3323 75.5882 47.5938C75.5882 42.8552 71.718 39 66.9608 39Z" fill="#FFCBBE"/>
<path d="M13.6275 56.1875C8.87027 56.1875 5 52.3323 5 47.5938C5 42.8552 8.87027 39 13.6275 39C18.3846 39 22.2549 42.8552 22.2549 47.5938C22.2549 52.3323 18.3846 56.1875 13.6275 56.1875Z" fill="#FFDDCE"/>
<path d="M13.6275 39V56.1875C18.3846 56.1875 22.2549 52.3323 22.2549 47.5938C22.2549 42.8552 18.3846 39 13.6275 39Z" fill="#FFCBBE"/>
</svg>
