<svg width="80" height="80" viewBox="0 0 80 80" fill="none" xmlns="http://www.w3.org/2000/svg">
<path d="M80 40C80 50.6844 75.8391 60.7297 68.2844 68.2844C60.7297 75.8391 50.6844 80 40 80H39.9594C29.2906 79.9891 19.2609 75.8297 11.7156 68.2844C4.16094 60.7297 0 50.6844 0 40C0 29.3156 4.16094 19.2703 11.7156 11.7156C19.2609 4.17031 29.2906 0.0109375 39.9594 0H40C50.6844 0 60.7297 4.16094 68.2844 11.7156C75.8391 19.2703 80 29.3156 80 40V40Z" fill="#FF6668"/>
<path d="M80 40C80 50.6844 75.839 60.7297 68.2843 68.2844C60.7297 75.8391 50.6843 80 40 80H39.9594V0H40C50.6843 0 60.7297 4.16094 68.2843 11.7156C75.839 19.2703 80 29.3156 80 40Z" fill="#F53D3D"/>
<path d="M35.2719 14.2969H44.6468V46.875H35.2719V14.2969Z" fill="white"/>
<path d="M35.2719 56.3281H44.6468V65.7031H35.2719V56.3281Z" fill="white"/>
<path d="M39.9594 14.2969H44.6468V46.875H39.9594V14.2969Z" fill="white"/>
<path d="M39.9594 56.3281H44.6468V65.7031H39.9594V56.3281Z" fill="white"/>
</svg>
