<svg width="59" height="82" viewBox="0 0 59 82" fill="none" xmlns="http://www.w3.org/2000/svg">
<path d="M12.2028 56.0725L10.2787 56.5239L4.03205 74.4707C3.833 75.0423 4.29617 75.6269 4.89823 75.5637L13.6542 74.6469C13.8988 74.6214 14.1419 74.706 14.3177 74.8779L20.612 81.0332C21.0447 81.4564 21.7708 81.2857 21.9696 80.7142L28.2572 62.6501L27.3475 61.3169L12.2028 56.0725Z" fill="#FF4755"/>
<path d="M28.2571 62.65L29.5276 59L11.5452 52.8848L10.2786 56.524C15.3847 60.1676 21.5677 62.3981 28.2571 62.65Z" fill="#FC2B3A"/>
<path d="M46.8249 56.0725L48.749 56.5239L54.9957 74.4707C55.1947 75.0423 54.7315 75.6269 54.1295 75.5637L45.3735 74.6469C45.1289 74.6214 44.8858 74.706 44.71 74.8779L38.4157 81.0332C37.983 81.4564 37.2569 81.2857 37.0581 80.7142L30.7707 62.6501L31.6803 61.3169L46.8249 56.0725Z" fill="#FF4755"/>
<path d="M30.7704 62.65L29.4999 59L47.4822 52.8848L48.7489 56.524C43.6428 60.1676 37.4598 62.3981 30.7704 62.65V62.65Z" fill="#FC2B3A"/>
<path d="M29.5 56.9212C58.9632 56.9212 58.9876 28.5057 58.9632 28.0132C58.1887 12.4116 45.2938 0 29.5 0C13.7062 0 0.811234 12.4116 0.0367977 28.0132C0.0123535 28.5057 -2.64431e-05 56.9212 29.5 56.9212Z" fill="#FFCB5B"/>
<path d="M29.5 56.0263C45.2938 56.0263 58.1883 43.6147 58.9629 28.0132C58.9873 28.5058 59 29.0015 59 29.5001C59 45.7924 45.7924 59.0001 29.5 59.0001C13.2076 59.0001 -2.99561e-05 45.7924 -2.99561e-05 29.5001C-2.99561e-05 29.0015 0.0126649 28.5058 0.0371091 28.0132C0.811704 43.6147 13.7062 56.0263 29.5 56.0263V56.0263Z" fill="#F7B737"/>
<path d="M29.5001 50.7977C52.693 50.7977 52.7241 28.5047 52.693 28.013C51.9264 15.8709 41.8355 6.26019 29.5001 6.26019C17.1647 6.26019 7.0738 15.8709 6.30714 28.013C6.27603 28.5047 6.26032 50.7977 29.5001 50.7977V50.7977Z" fill="#FF9838"/>
<path d="M29.5 49.766C41.8354 49.766 51.9242 40.155 52.691 28.0132C52.7221 28.505 52.7397 29.0005 52.7397 29.5001C52.7397 42.335 42.3349 52.7398 29.5 52.7398C16.665 52.7398 6.26022 42.335 6.26022 29.5001C6.26022 29.0004 6.27783 28.505 6.30895 28.0132C7.07576 40.155 17.1647 49.766 29.5 49.766Z" fill="#FF8709"/>
<path d="M27.3726 18.1796L25.2052 22.5713C24.8596 23.2715 24.1915 23.7569 23.4188 23.8691L18.5724 24.5734C16.6264 24.8561 15.8494 27.2475 17.2575 28.6202L20.7644 32.0385C21.3236 32.5836 21.5787 33.3688 21.4468 34.1385L20.6189 38.9654C20.5403 39.4232 20.7444 40.2364 20.7444 40.2364H24.0612L29.5001 37.1785L34.9389 40.2362L38.2284 40.3024C38.2284 40.3024 38.4644 39.4499 38.3812 38.9653L37.5533 34.1383C37.4212 33.3687 37.6765 32.5834 38.2357 32.0384L41.7426 28.62C43.1507 27.2475 42.3737 24.8561 40.4277 24.5732L35.5813 23.8689C34.8086 23.7567 34.1405 23.2713 33.7949 22.5712L31.6275 18.1795C30.7573 16.4163 28.2428 16.4163 27.3726 18.1796V18.1796Z" fill="#FFF5F5"/>
<path d="M29.8845 35.8355L38.2544 40.2359C37.7676 41.4676 36.2682 42.1654 34.9389 41.4665L30.604 39.1875C29.9129 38.8242 29.0872 38.8242 28.3959 39.1875L24.061 41.4665C22.7317 42.1654 21.2322 41.4676 20.7455 40.2359L29.1154 35.8355C29.3564 35.709 29.6438 35.709 29.8845 35.8355V35.8355Z" fill="#EFE2DD"/>
</svg>
