<svg width="63" height="80" viewBox="0 0 63 80" fill="none" xmlns="http://www.w3.org/2000/svg">
<path d="M46.9192 58.0892L38.6305 49.0297V38.009H24.1776V49.0331L15.9809 58.0892H46.9192Z" fill="#FFDDCE"/>
<path d="M45.4119 57.9262L37.9811 55.7447L31.4067 63.2833L20.0395 50.2476L7.95625 53.7942C3.23984 55.1786 0 59.5058 0 64.4212V76.0808C0 78.2453 1.75484 80 3.91953 80H9.23531L10.1933 79.3164H10.6916L11.6495 80H51.1583L52.5645 78.9965H53.7308V69.0386C53.7309 63.8989 50.3434 59.374 45.4119 57.9262Z" fill="#407093"/>
<path d="M54.858 53.7937L42.7759 50.2467L37.1592 56.6872L44.665 58.8907C49.3811 60.2753 52.6205 64.6025 52.6205 69.5175V78.9965H53.573V80H58.8941C61.0587 80 62.8134 78.2451 62.8134 76.0806V64.4206C62.8134 59.5054 59.5741 55.1782 54.858 53.7937Z" fill="#365E7D"/>
<path d="M11.6497 80V73.5892C11.6497 72.9225 11.1092 72.382 10.4425 72.382C9.77579 72.382 9.23532 72.9225 9.23532 73.5892V80H11.6497Z" fill="#365E7D"/>
<path d="M53.5728 80V73.5892C53.5728 72.9225 53.0324 72.382 52.3656 72.382C51.6989 72.382 51.1584 72.9225 51.1584 73.5892V80H53.5728Z" fill="#365E7D"/>
<path d="M9.62937 23.6226L8.39172 22.2579H5.74641L4.50875 23.6226L2.87765 33.1961C2.72375 34.0997 3.41984 34.9245 4.33656 34.9245H9.80125C10.718 34.9245 11.4141 34.0997 11.2602 33.1961L9.62937 23.6226Z" fill="#E4F6FF"/>
<path d="M8.27641 21.2954V9.18979C8.27641 8.52307 7.73594 7.9826 7.06922 7.9826C6.4025 7.9826 5.86203 8.52307 5.86203 9.18979V21.2954H8.27641Z" fill="#407093"/>
<path d="M38.0951 8.21979H37.8289H24.9794H24.7131C19.8753 8.21979 15.9536 12.1415 15.9536 16.9793V17.1173V25.4284L17.4022 26.7046H46.8545V17.1173V16.9793C46.8547 12.1417 42.9328 8.21979 38.0951 8.21979Z" fill="#EFC984"/>
<path d="M38.0951 8.21979H37.8289H36.6948V26.7046H45.5173L46.8545 25.4284V17.1173V16.9793C46.8547 12.1417 42.9328 8.21979 38.0951 8.21979Z" fill="#EABC6B"/>
<path d="M31.4067 44.3868C31.5523 44.3868 31.6972 44.3843 31.8415 44.3795C35.2976 42.1845 37.6451 38.4003 37.8544 34.0534V18.7539H21.2345V22.7801C21.2345 24.2428 20.0487 25.4284 18.5862 25.4284H15.9562V29.7592C15.9562 30.8658 16.8533 31.7629 17.96 31.7629C18.309 31.7629 18.5933 32.0365 18.6151 32.385C19.0376 39.0837 24.6014 44.3868 31.4067 44.3868Z" fill="#FFDDCE"/>
<path d="M44.2273 25.4284C42.7647 25.4284 41.579 24.2428 41.579 22.7801V18.7539H36.695V33.6597C36.4734 38.2647 33.8234 42.2306 29.9984 44.3076C30.4612 44.3583 30.9304 44.3868 31.4067 44.3868C38.212 44.3868 43.7758 39.0837 44.1983 32.385C44.2203 32.0365 44.5043 31.7629 44.8534 31.7629C45.96 31.7629 46.8572 30.8659 46.8572 29.7592V25.4284H44.2273Z" fill="#FFCBBE"/>
<path d="M37.8544 13.6129V10.6289C36.384 10.6173 35.1954 9.42293 35.1954 7.9498V2.58699L34.0675 0.779648L31.8186 0.0643359C31.5489 -0.0214453 31.2594 -0.0214453 30.9897 0.0643359L6.50671 7.85168C5.14093 8.28605 5.27874 10.262 6.69155 10.5026L31.4042 14.7115L37.8544 13.6129Z" fill="#407093"/>
<path d="M37.8544 10.6749L34.2936 10.2345C32.3745 9.99713 30.4336 9.99713 28.5147 10.2346L14.9634 11.9115V17.9503C14.9634 18.6046 15.4939 19.1351 16.1483 19.1351H37.8544V10.6749Z" fill="#4A80AA"/>
<path d="M56.3017 7.85166L34.0675 0.779633V7.8651C34.0675 9.32073 35.242 10.501 36.6948 10.5124V13.8106L56.1167 10.5028C57.5297 10.2618 57.6675 8.28604 56.3017 7.85166Z" fill="#365E7D"/>
<path d="M36.695 10.5315V19.1351H46.6652C47.3195 19.1351 47.85 18.6047 47.85 17.9503V11.9114L36.695 10.5315Z" fill="#407093"/>
<path d="M9.62938 23.6226H4.50891V20.2614C4.50891 19.5471 5.08782 18.9682 5.80204 18.9682H8.3361C9.05032 18.9682 9.62922 19.5471 9.62922 20.2614V23.6226H9.62938Z" fill="#FFE07D"/>
<path d="M38.6305 44.9951C38.6305 49.6839 37.2694 54.2718 34.7125 58.202L31.4067 63.2832L49.8505 52.3236L38.6305 44.9951Z" fill="#4A80AA"/>
<path d="M24.183 44.9951C24.183 49.6839 25.544 54.2718 28.1009 58.202L31.4067 63.2832L12.963 52.3236L24.183 44.9951Z" fill="#4A80AA"/>
<path d="M37.5633 52.0954C35.6664 52.5131 33.5878 52.7446 31.4067 52.7446C29.2258 52.7446 27.147 52.5131 25.2502 52.0954C25.9087 54.2426 26.8633 56.2998 28.1008 58.202L31.4067 63.2832L34.7125 58.202C35.9501 56.2998 36.9047 54.2426 37.5633 52.0954Z" fill="#F4FBFF"/>
</svg>
